<mxfile host="app.diagrams.net" modified="2022-01-20T04:17:42.206Z" agent="5.0 (Windows NT 10.0; WOW64) AppleWebKit/537.36 (KHTML, like Gecko) Chrome/96.0.4664.120 Safari/537.36" etag="SgHfwpkvpyy_2-KtlbTb" version="16.4.0" type="github">
  <diagram id="18GxjoZ2o8bzVbKozcRF" name="Page-1">
    <mxGraphModel dx="2816" dy="1980" grid="1" gridSize="10" guides="1" tooltips="1" connect="1" arrows="1" fold="1" page="1" pageScale="1" pageWidth="850" pageHeight="1100" math="0" shadow="0">
      <root>
        <mxCell id="0" />
        <mxCell id="1" parent="0" />
        <mxCell id="L-7XdOGWxHxovcnAPLZ8-1" value="Tạo khuyến mãi" style="rhombus;whiteSpace=wrap;html=1;" parent="1" vertex="1">
          <mxGeometry x="536.25" y="-100" width="130" height="80" as="geometry" />
        </mxCell>
        <mxCell id="L-7XdOGWxHxovcnAPLZ8-3" value="Cửa hàng" style="html=1;" parent="1" vertex="1">
          <mxGeometry x="80" y="110" width="90" height="50" as="geometry" />
        </mxCell>
        <mxCell id="L-7XdOGWxHxovcnAPLZ8-7" value="1&lt;br&gt;" style="endArrow=none;html=1;rounded=0;entryX=0;entryY=0.5;entryDx=0;entryDy=0;exitX=0.5;exitY=0;exitDx=0;exitDy=0;" parent="1" source="L-7XdOGWxHxovcnAPLZ8-3" target="L-7XdOGWxHxovcnAPLZ8-1" edge="1">
          <mxGeometry x="-0.8491" y="-6" width="50" height="50" relative="1" as="geometry">
            <mxPoint x="170" y="110" as="sourcePoint" />
            <mxPoint x="220" y="60" as="targetPoint" />
            <Array as="points">
              <mxPoint x="125" y="-60" />
            </Array>
            <mxPoint as="offset" />
          </mxGeometry>
        </mxCell>
        <mxCell id="L-7XdOGWxHxovcnAPLZ8-155" value="M" style="edgeLabel;html=1;align=center;verticalAlign=middle;resizable=0;points=[];" parent="L-7XdOGWxHxovcnAPLZ8-7" vertex="1" connectable="0">
          <mxGeometry x="0.8753" y="2" relative="1" as="geometry">
            <mxPoint as="offset" />
          </mxGeometry>
        </mxCell>
        <mxCell id="L-7XdOGWxHxovcnAPLZ8-8" value="Khuyến mãi&lt;br&gt;" style="html=1;" parent="1" vertex="1">
          <mxGeometry x="1010" y="115" width="90" height="50" as="geometry" />
        </mxCell>
        <mxCell id="L-7XdOGWxHxovcnAPLZ8-9" value="M" style="endArrow=none;html=1;rounded=0;exitX=1;exitY=0.5;exitDx=0;exitDy=0;entryX=0.5;entryY=0;entryDx=0;entryDy=0;" parent="1" source="L-7XdOGWxHxovcnAPLZ8-1" target="L-7XdOGWxHxovcnAPLZ8-8" edge="1">
          <mxGeometry x="0.9167" width="50" height="50" relative="1" as="geometry">
            <mxPoint x="520" y="200" as="sourcePoint" />
            <mxPoint x="570" y="150" as="targetPoint" />
            <Array as="points">
              <mxPoint x="1055" y="-60" />
            </Array>
            <mxPoint as="offset" />
          </mxGeometry>
        </mxCell>
        <mxCell id="L-7XdOGWxHxovcnAPLZ8-12" value="Địa chỉ&lt;br&gt;" style="ellipse;whiteSpace=wrap;html=1;" parent="1" vertex="1">
          <mxGeometry x="50" y="65" width="50" height="30" as="geometry" />
        </mxCell>
        <mxCell id="L-7XdOGWxHxovcnAPLZ8-15" value="" style="endArrow=none;html=1;rounded=0;exitX=1;exitY=1;exitDx=0;exitDy=0;" parent="1" source="L-7XdOGWxHxovcnAPLZ8-12" target="L-7XdOGWxHxovcnAPLZ8-3" edge="1">
          <mxGeometry width="50" height="50" relative="1" as="geometry">
            <mxPoint x="520" y="180" as="sourcePoint" />
            <mxPoint x="570" y="130" as="targetPoint" />
          </mxGeometry>
        </mxCell>
        <mxCell id="L-7XdOGWxHxovcnAPLZ8-16" value="Giờ làm việc" style="ellipse;whiteSpace=wrap;html=1;" parent="1" vertex="1">
          <mxGeometry x="-50" y="90" width="90" height="40" as="geometry" />
        </mxCell>
        <mxCell id="L-7XdOGWxHxovcnAPLZ8-17" value="" style="endArrow=none;html=1;rounded=0;" parent="1" source="L-7XdOGWxHxovcnAPLZ8-16" target="L-7XdOGWxHxovcnAPLZ8-3" edge="1">
          <mxGeometry width="50" height="50" relative="1" as="geometry">
            <mxPoint x="520" y="180" as="sourcePoint" />
            <mxPoint x="570" y="130" as="targetPoint" />
          </mxGeometry>
        </mxCell>
        <mxCell id="L-7XdOGWxHxovcnAPLZ8-18" value="Mã&lt;br&gt;" style="ellipse;whiteSpace=wrap;html=1;" parent="1" vertex="1">
          <mxGeometry x="150" y="70" width="40" height="25" as="geometry" />
        </mxCell>
        <mxCell id="L-7XdOGWxHxovcnAPLZ8-20" value="" style="endArrow=none;html=1;rounded=0;entryX=0;entryY=1;entryDx=0;entryDy=0;exitX=0.75;exitY=0;exitDx=0;exitDy=0;" parent="1" source="L-7XdOGWxHxovcnAPLZ8-3" target="L-7XdOGWxHxovcnAPLZ8-18" edge="1">
          <mxGeometry width="50" height="50" relative="1" as="geometry">
            <mxPoint x="120" y="110" as="sourcePoint" />
            <mxPoint x="570" y="120" as="targetPoint" />
          </mxGeometry>
        </mxCell>
        <mxCell id="L-7XdOGWxHxovcnAPLZ8-21" value="Tên&lt;br&gt;" style="ellipse;whiteSpace=wrap;html=1;" parent="1" vertex="1">
          <mxGeometry x="200" y="87.5" width="40" height="30" as="geometry" />
        </mxCell>
        <mxCell id="L-7XdOGWxHxovcnAPLZ8-22" value="" style="endArrow=none;html=1;rounded=0;entryX=0;entryY=0.5;entryDx=0;entryDy=0;exitX=1;exitY=0.25;exitDx=0;exitDy=0;" parent="1" source="L-7XdOGWxHxovcnAPLZ8-3" target="L-7XdOGWxHxovcnAPLZ8-21" edge="1">
          <mxGeometry width="50" height="50" relative="1" as="geometry">
            <mxPoint x="520" y="160" as="sourcePoint" />
            <mxPoint x="570" y="110" as="targetPoint" />
          </mxGeometry>
        </mxCell>
        <mxCell id="L-7XdOGWxHxovcnAPLZ8-24" value="Ngày làm việc" style="ellipse;whiteSpace=wrap;html=1;" parent="1" vertex="1">
          <mxGeometry x="-50" y="150" width="90" height="40" as="geometry" />
        </mxCell>
        <mxCell id="L-7XdOGWxHxovcnAPLZ8-27" value="" style="endArrow=none;html=1;rounded=0;exitX=1;exitY=0;exitDx=0;exitDy=0;" parent="1" source="L-7XdOGWxHxovcnAPLZ8-24" target="L-7XdOGWxHxovcnAPLZ8-3" edge="1">
          <mxGeometry width="50" height="50" relative="1" as="geometry">
            <mxPoint x="520" y="160" as="sourcePoint" />
            <mxPoint x="570" y="110" as="targetPoint" />
          </mxGeometry>
        </mxCell>
        <mxCell id="L-7XdOGWxHxovcnAPLZ8-29" style="edgeStyle=orthogonalEdgeStyle;rounded=0;orthogonalLoop=1;jettySize=auto;html=1;exitX=0.5;exitY=1;exitDx=0;exitDy=0;" parent="1" edge="1">
          <mxGeometry relative="1" as="geometry">
            <mxPoint x="270" y="205" as="sourcePoint" />
            <mxPoint x="270" y="205" as="targetPoint" />
          </mxGeometry>
        </mxCell>
        <mxCell id="L-7XdOGWxHxovcnAPLZ8-33" value="Điện thoại" style="ellipse;whiteSpace=wrap;html=1;" parent="1" vertex="1">
          <mxGeometry x="190" y="165" width="60" height="30" as="geometry" />
        </mxCell>
        <mxCell id="L-7XdOGWxHxovcnAPLZ8-35" value="Email&lt;br&gt;" style="ellipse;whiteSpace=wrap;html=1;" parent="1" vertex="1">
          <mxGeometry x="70" y="180" width="50" height="30" as="geometry" />
        </mxCell>
        <mxCell id="L-7XdOGWxHxovcnAPLZ8-37" value="" style="endArrow=none;html=1;rounded=0;exitX=0.25;exitY=1;exitDx=0;exitDy=0;entryX=0.5;entryY=0;entryDx=0;entryDy=0;" parent="1" source="L-7XdOGWxHxovcnAPLZ8-3" target="L-7XdOGWxHxovcnAPLZ8-35" edge="1">
          <mxGeometry width="50" height="50" relative="1" as="geometry">
            <mxPoint x="520" y="240" as="sourcePoint" />
            <mxPoint x="570" y="190" as="targetPoint" />
          </mxGeometry>
        </mxCell>
        <mxCell id="L-7XdOGWxHxovcnAPLZ8-38" value="Thành viên&lt;br&gt;" style="rounded=0;whiteSpace=wrap;html=1;" parent="1" vertex="1">
          <mxGeometry x="562.5" y="120" width="80" height="40" as="geometry" />
        </mxCell>
        <mxCell id="L-7XdOGWxHxovcnAPLZ8-39" value="Email&lt;br&gt;" style="ellipse;whiteSpace=wrap;html=1;" parent="1" vertex="1">
          <mxGeometry x="476.25" y="137.5" width="50" height="27.5" as="geometry" />
        </mxCell>
        <mxCell id="L-7XdOGWxHxovcnAPLZ8-40" value="Mã" style="ellipse;whiteSpace=wrap;html=1;" parent="1" vertex="1">
          <mxGeometry x="476.25" y="100" width="50" height="20" as="geometry" />
        </mxCell>
        <mxCell id="L-7XdOGWxHxovcnAPLZ8-41" value="Mật khẩu&lt;br&gt;" style="ellipse;whiteSpace=wrap;html=1;" parent="1" vertex="1">
          <mxGeometry x="530" y="75" width="60" height="30" as="geometry" />
        </mxCell>
        <mxCell id="L-7XdOGWxHxovcnAPLZ8-42" style="edgeStyle=orthogonalEdgeStyle;rounded=0;orthogonalLoop=1;jettySize=auto;html=1;exitX=0.5;exitY=1;exitDx=0;exitDy=0;" parent="1" source="L-7XdOGWxHxovcnAPLZ8-41" target="L-7XdOGWxHxovcnAPLZ8-41" edge="1">
          <mxGeometry relative="1" as="geometry" />
        </mxCell>
        <mxCell id="L-7XdOGWxHxovcnAPLZ8-43" value="Tên" style="ellipse;whiteSpace=wrap;html=1;" parent="1" vertex="1">
          <mxGeometry x="602.5" y="70" width="40" height="30" as="geometry" />
        </mxCell>
        <mxCell id="L-7XdOGWxHxovcnAPLZ8-44" value="Địa chỉ&lt;br&gt;" style="ellipse;whiteSpace=wrap;html=1;" parent="1" vertex="1">
          <mxGeometry x="660" y="87.5" width="50" height="30" as="geometry" />
        </mxCell>
        <mxCell id="L-7XdOGWxHxovcnAPLZ8-46" value="Điện thoại&lt;br&gt;" style="ellipse;whiteSpace=wrap;html=1;" parent="1" vertex="1">
          <mxGeometry x="652.5" y="170" width="65" height="30" as="geometry" />
        </mxCell>
        <mxCell id="L-7XdOGWxHxovcnAPLZ8-47" value="" style="endArrow=none;html=1;rounded=0;entryX=1;entryY=0.5;entryDx=0;entryDy=0;exitX=0;exitY=0.75;exitDx=0;exitDy=0;" parent="1" source="L-7XdOGWxHxovcnAPLZ8-38" target="L-7XdOGWxHxovcnAPLZ8-39" edge="1">
          <mxGeometry width="50" height="50" relative="1" as="geometry">
            <mxPoint x="652.5" y="200" as="sourcePoint" />
            <mxPoint x="702.5" y="150" as="targetPoint" />
          </mxGeometry>
        </mxCell>
        <mxCell id="L-7XdOGWxHxovcnAPLZ8-48" value="" style="endArrow=none;html=1;rounded=0;exitX=1;exitY=1;exitDx=0;exitDy=0;entryX=0;entryY=0;entryDx=0;entryDy=0;" parent="1" source="L-7XdOGWxHxovcnAPLZ8-40" target="L-7XdOGWxHxovcnAPLZ8-38" edge="1">
          <mxGeometry width="50" height="50" relative="1" as="geometry">
            <mxPoint x="652.5" y="200" as="sourcePoint" />
            <mxPoint x="702.5" y="150" as="targetPoint" />
          </mxGeometry>
        </mxCell>
        <mxCell id="L-7XdOGWxHxovcnAPLZ8-49" value="" style="endArrow=none;html=1;rounded=0;entryX=0.5;entryY=1;entryDx=0;entryDy=0;" parent="1" target="L-7XdOGWxHxovcnAPLZ8-41" edge="1">
          <mxGeometry width="50" height="50" relative="1" as="geometry">
            <mxPoint x="570" y="120" as="sourcePoint" />
            <mxPoint x="702.5" y="150" as="targetPoint" />
          </mxGeometry>
        </mxCell>
        <mxCell id="L-7XdOGWxHxovcnAPLZ8-50" value="" style="endArrow=none;html=1;rounded=0;entryX=0.5;entryY=1;entryDx=0;entryDy=0;exitX=0.75;exitY=0;exitDx=0;exitDy=0;" parent="1" source="L-7XdOGWxHxovcnAPLZ8-38" target="L-7XdOGWxHxovcnAPLZ8-43" edge="1">
          <mxGeometry width="50" height="50" relative="1" as="geometry">
            <mxPoint x="652.5" y="200" as="sourcePoint" />
            <mxPoint x="702.5" y="150" as="targetPoint" />
          </mxGeometry>
        </mxCell>
        <mxCell id="L-7XdOGWxHxovcnAPLZ8-51" value="" style="endArrow=none;html=1;rounded=0;exitX=1;exitY=0;exitDx=0;exitDy=0;entryX=0;entryY=1;entryDx=0;entryDy=0;" parent="1" source="L-7XdOGWxHxovcnAPLZ8-38" target="L-7XdOGWxHxovcnAPLZ8-44" edge="1">
          <mxGeometry width="50" height="50" relative="1" as="geometry">
            <mxPoint x="652.5" y="200" as="sourcePoint" />
            <mxPoint x="702.5" y="150" as="targetPoint" />
          </mxGeometry>
        </mxCell>
        <mxCell id="L-7XdOGWxHxovcnAPLZ8-52" value="" style="endArrow=none;html=1;rounded=0;exitX=1;exitY=1;exitDx=0;exitDy=0;entryX=0;entryY=0;entryDx=0;entryDy=0;" parent="1" source="L-7XdOGWxHxovcnAPLZ8-38" target="L-7XdOGWxHxovcnAPLZ8-46" edge="1">
          <mxGeometry width="50" height="50" relative="1" as="geometry">
            <mxPoint x="652.5" y="200" as="sourcePoint" />
            <mxPoint x="702.5" y="150" as="targetPoint" />
          </mxGeometry>
        </mxCell>
        <mxCell id="L-7XdOGWxHxovcnAPLZ8-53" value="Lấy khuyến mại" style="rhombus;whiteSpace=wrap;html=1;" parent="1" vertex="1">
          <mxGeometry x="740" y="115" width="120" height="50" as="geometry" />
        </mxCell>
        <mxCell id="L-7XdOGWxHxovcnAPLZ8-54" value="M" style="endArrow=none;html=1;rounded=0;exitX=1;exitY=0.5;exitDx=0;exitDy=0;entryX=0;entryY=0.5;entryDx=0;entryDy=0;" parent="1" source="L-7XdOGWxHxovcnAPLZ8-38" target="L-7XdOGWxHxovcnAPLZ8-53" edge="1">
          <mxGeometry width="50" height="50" relative="1" as="geometry">
            <mxPoint x="730" as="sourcePoint" />
            <mxPoint x="780" y="-50" as="targetPoint" />
          </mxGeometry>
        </mxCell>
        <mxCell id="L-7XdOGWxHxovcnAPLZ8-58" value="M" style="endArrow=none;html=1;rounded=0;entryX=0;entryY=0.5;entryDx=0;entryDy=0;exitX=1;exitY=0.5;exitDx=0;exitDy=0;" parent="1" source="L-7XdOGWxHxovcnAPLZ8-53" target="L-7XdOGWxHxovcnAPLZ8-8" edge="1">
          <mxGeometry width="50" height="50" relative="1" as="geometry">
            <mxPoint x="870" y="140" as="sourcePoint" />
            <mxPoint x="920" y="90" as="targetPoint" />
          </mxGeometry>
        </mxCell>
        <mxCell id="L-7XdOGWxHxovcnAPLZ8-59" value="Ngày bắt đầu" style="ellipse;whiteSpace=wrap;html=1;" parent="1" vertex="1">
          <mxGeometry x="1070" y="55" width="80" height="50" as="geometry" />
        </mxCell>
        <mxCell id="L-7XdOGWxHxovcnAPLZ8-60" value="Chi tiết&lt;br&gt;" style="ellipse;whiteSpace=wrap;html=1;" parent="1" vertex="1">
          <mxGeometry x="980" y="60" width="60" height="40" as="geometry" />
        </mxCell>
        <mxCell id="L-7XdOGWxHxovcnAPLZ8-61" value="Ngày hết hạn&lt;br&gt;" style="ellipse;whiteSpace=wrap;html=1;" parent="1" vertex="1">
          <mxGeometry x="1130" y="107.5" width="80" height="55" as="geometry" />
        </mxCell>
        <mxCell id="L-7XdOGWxHxovcnAPLZ8-65" value="" style="endArrow=none;html=1;rounded=0;entryX=0.5;entryY=1;entryDx=0;entryDy=0;exitX=0.25;exitY=0;exitDx=0;exitDy=0;" parent="1" source="L-7XdOGWxHxovcnAPLZ8-8" target="L-7XdOGWxHxovcnAPLZ8-60" edge="1">
          <mxGeometry width="50" height="50" relative="1" as="geometry">
            <mxPoint x="1030" y="110" as="sourcePoint" />
            <mxPoint x="890" y="50" as="targetPoint" />
          </mxGeometry>
        </mxCell>
        <mxCell id="L-7XdOGWxHxovcnAPLZ8-66" value="" style="endArrow=none;html=1;rounded=0;exitX=0.75;exitY=0;exitDx=0;exitDy=0;entryX=0;entryY=1;entryDx=0;entryDy=0;" parent="1" source="L-7XdOGWxHxovcnAPLZ8-8" target="L-7XdOGWxHxovcnAPLZ8-59" edge="1">
          <mxGeometry width="50" height="50" relative="1" as="geometry">
            <mxPoint x="840" y="100" as="sourcePoint" />
            <mxPoint x="890" y="50" as="targetPoint" />
          </mxGeometry>
        </mxCell>
        <mxCell id="L-7XdOGWxHxovcnAPLZ8-67" value="Mã" style="ellipse;whiteSpace=wrap;html=1;" parent="1" vertex="1">
          <mxGeometry x="1120" y="170" width="40" height="30" as="geometry" />
        </mxCell>
        <mxCell id="L-7XdOGWxHxovcnAPLZ8-68" value="" style="endArrow=none;html=1;rounded=0;exitX=1;exitY=0.5;exitDx=0;exitDy=0;" parent="1" source="L-7XdOGWxHxovcnAPLZ8-8" target="L-7XdOGWxHxovcnAPLZ8-61" edge="1">
          <mxGeometry width="50" height="50" relative="1" as="geometry">
            <mxPoint x="840" y="80" as="sourcePoint" />
            <mxPoint x="890" y="30" as="targetPoint" />
          </mxGeometry>
        </mxCell>
        <mxCell id="L-7XdOGWxHxovcnAPLZ8-69" value="" style="endArrow=none;html=1;rounded=0;exitX=0;exitY=0;exitDx=0;exitDy=0;entryX=1;entryY=0.75;entryDx=0;entryDy=0;" parent="1" source="L-7XdOGWxHxovcnAPLZ8-67" target="L-7XdOGWxHxovcnAPLZ8-8" edge="1">
          <mxGeometry width="50" height="50" relative="1" as="geometry">
            <mxPoint x="840" y="80" as="sourcePoint" />
            <mxPoint x="890" y="30" as="targetPoint" />
          </mxGeometry>
        </mxCell>
        <mxCell id="L-7XdOGWxHxovcnAPLZ8-70" value="Mua" style="rhombus;whiteSpace=wrap;html=1;" parent="1" vertex="1">
          <mxGeometry x="578.75" y="250" width="47.5" height="40" as="geometry" />
        </mxCell>
        <mxCell id="L-7XdOGWxHxovcnAPLZ8-72" value="M" style="endArrow=none;html=1;rounded=0;exitX=0.5;exitY=0;exitDx=0;exitDy=0;" parent="1" source="L-7XdOGWxHxovcnAPLZ8-70" target="L-7XdOGWxHxovcnAPLZ8-38" edge="1">
          <mxGeometry width="50" height="50" relative="1" as="geometry">
            <mxPoint x="840" y="280" as="sourcePoint" />
            <mxPoint x="890" y="230" as="targetPoint" />
          </mxGeometry>
        </mxCell>
        <mxCell id="L-7XdOGWxHxovcnAPLZ8-83" value="Món" style="rounded=0;whiteSpace=wrap;html=1;" parent="1" vertex="1">
          <mxGeometry x="425" y="400" width="82.5" height="40" as="geometry" />
        </mxCell>
        <mxCell id="L-7XdOGWxHxovcnAPLZ8-84" value="Quản lý&lt;br&gt;" style="rhombus;whiteSpace=wrap;html=1;" parent="1" vertex="1">
          <mxGeometry x="320" y="250" width="60" height="40" as="geometry" />
        </mxCell>
        <mxCell id="L-7XdOGWxHxovcnAPLZ8-85" style="edgeStyle=orthogonalEdgeStyle;rounded=0;orthogonalLoop=1;jettySize=auto;html=1;exitX=0.5;exitY=1;exitDx=0;exitDy=0;" parent="1" source="L-7XdOGWxHxovcnAPLZ8-33" target="L-7XdOGWxHxovcnAPLZ8-33" edge="1">
          <mxGeometry relative="1" as="geometry" />
        </mxCell>
        <mxCell id="L-7XdOGWxHxovcnAPLZ8-86" value="M" style="endArrow=none;html=1;rounded=0;exitX=1;exitY=0.5;exitDx=0;exitDy=0;entryX=0.25;entryY=0;entryDx=0;entryDy=0;" parent="1" source="L-7XdOGWxHxovcnAPLZ8-84" target="L-7XdOGWxHxovcnAPLZ8-83" edge="1">
          <mxGeometry x="0.8148" width="50" height="50" relative="1" as="geometry">
            <mxPoint x="360" y="350" as="sourcePoint" />
            <mxPoint x="410" y="300" as="targetPoint" />
            <Array as="points">
              <mxPoint x="446" y="270" />
            </Array>
            <mxPoint as="offset" />
          </mxGeometry>
        </mxCell>
        <mxCell id="L-7XdOGWxHxovcnAPLZ8-87" value="M" style="endArrow=none;html=1;rounded=0;entryX=0;entryY=0.5;entryDx=0;entryDy=0;exitX=0.75;exitY=0;exitDx=0;exitDy=0;" parent="1" source="L-7XdOGWxHxovcnAPLZ8-83" target="L-7XdOGWxHxovcnAPLZ8-70" edge="1">
          <mxGeometry x="-0.8196" width="50" height="50" relative="1" as="geometry">
            <mxPoint x="360" y="350" as="sourcePoint" />
            <mxPoint x="410" y="300" as="targetPoint" />
            <Array as="points">
              <mxPoint x="487" y="270" />
            </Array>
            <mxPoint as="offset" />
          </mxGeometry>
        </mxCell>
        <mxCell id="L-7XdOGWxHxovcnAPLZ8-88" value="" style="endArrow=none;html=1;rounded=0;exitX=1;exitY=0.5;exitDx=0;exitDy=0;entryX=0.5;entryY=0;entryDx=0;entryDy=0;" parent="1" source="L-7XdOGWxHxovcnAPLZ8-3" target="L-7XdOGWxHxovcnAPLZ8-84" edge="1">
          <mxGeometry width="50" height="50" relative="1" as="geometry">
            <mxPoint x="360" y="350" as="sourcePoint" />
            <mxPoint x="410" y="300" as="targetPoint" />
            <Array as="points">
              <mxPoint x="350" y="135" />
            </Array>
          </mxGeometry>
        </mxCell>
        <mxCell id="MbJ_vTkFXQ6meyeBdJKi-2" value="M" style="edgeLabel;html=1;align=center;verticalAlign=middle;resizable=0;points=[];" vertex="1" connectable="0" parent="L-7XdOGWxHxovcnAPLZ8-88">
          <mxGeometry x="-0.8321" y="1" relative="1" as="geometry">
            <mxPoint as="offset" />
          </mxGeometry>
        </mxCell>
        <mxCell id="L-7XdOGWxHxovcnAPLZ8-90" value="Mã&lt;br&gt;" style="ellipse;whiteSpace=wrap;html=1;" parent="1" vertex="1">
          <mxGeometry x="360" y="420" width="40" height="20" as="geometry" />
        </mxCell>
        <mxCell id="L-7XdOGWxHxovcnAPLZ8-91" value="Tên" style="ellipse;whiteSpace=wrap;html=1;" parent="1" vertex="1">
          <mxGeometry x="360" y="390" width="40" height="20" as="geometry" />
        </mxCell>
        <mxCell id="L-7XdOGWxHxovcnAPLZ8-92" value="Thể loại&lt;br&gt;" style="ellipse;whiteSpace=wrap;html=1;" parent="1" vertex="1">
          <mxGeometry x="537.5" y="360" width="55" height="30" as="geometry" />
        </mxCell>
        <mxCell id="L-7XdOGWxHxovcnAPLZ8-93" value="Số lượng" style="ellipse;whiteSpace=wrap;html=1;" parent="1" vertex="1">
          <mxGeometry x="536.25" y="405" width="52.5" height="30" as="geometry" />
        </mxCell>
        <mxCell id="L-7XdOGWxHxovcnAPLZ8-94" value="Giá tiền" style="ellipse;whiteSpace=wrap;html=1;" parent="1" vertex="1">
          <mxGeometry x="537.5" y="450" width="45" height="30" as="geometry" />
        </mxCell>
        <mxCell id="L-7XdOGWxHxovcnAPLZ8-95" value="" style="endArrow=none;html=1;rounded=0;entryX=1;entryY=0.5;entryDx=0;entryDy=0;exitX=0;exitY=0;exitDx=0;exitDy=0;" parent="1" source="L-7XdOGWxHxovcnAPLZ8-83" target="L-7XdOGWxHxovcnAPLZ8-91" edge="1">
          <mxGeometry width="50" height="50" relative="1" as="geometry">
            <mxPoint x="360" y="440" as="sourcePoint" />
            <mxPoint x="410" y="390" as="targetPoint" />
          </mxGeometry>
        </mxCell>
        <mxCell id="L-7XdOGWxHxovcnAPLZ8-96" value="" style="endArrow=none;html=1;rounded=0;exitX=1;exitY=0.5;exitDx=0;exitDy=0;entryX=0;entryY=0.75;entryDx=0;entryDy=0;" parent="1" source="L-7XdOGWxHxovcnAPLZ8-90" target="L-7XdOGWxHxovcnAPLZ8-83" edge="1">
          <mxGeometry width="50" height="50" relative="1" as="geometry">
            <mxPoint x="360" y="440" as="sourcePoint" />
            <mxPoint x="410" y="390" as="targetPoint" />
          </mxGeometry>
        </mxCell>
        <mxCell id="L-7XdOGWxHxovcnAPLZ8-97" value="" style="endArrow=none;html=1;rounded=0;exitX=0;exitY=1;exitDx=0;exitDy=0;entryX=1;entryY=0;entryDx=0;entryDy=0;" parent="1" source="L-7XdOGWxHxovcnAPLZ8-92" target="L-7XdOGWxHxovcnAPLZ8-83" edge="1">
          <mxGeometry width="50" height="50" relative="1" as="geometry">
            <mxPoint x="360" y="440" as="sourcePoint" />
            <mxPoint x="410" y="390" as="targetPoint" />
          </mxGeometry>
        </mxCell>
        <mxCell id="L-7XdOGWxHxovcnAPLZ8-98" value="" style="endArrow=none;html=1;rounded=0;entryX=0;entryY=0.5;entryDx=0;entryDy=0;exitX=1;exitY=0.5;exitDx=0;exitDy=0;" parent="1" source="L-7XdOGWxHxovcnAPLZ8-83" target="L-7XdOGWxHxovcnAPLZ8-93" edge="1">
          <mxGeometry width="50" height="50" relative="1" as="geometry">
            <mxPoint x="510" y="420" as="sourcePoint" />
            <mxPoint x="410" y="390" as="targetPoint" />
          </mxGeometry>
        </mxCell>
        <mxCell id="L-7XdOGWxHxovcnAPLZ8-99" value="" style="endArrow=none;html=1;rounded=0;exitX=0;exitY=0;exitDx=0;exitDy=0;entryX=1;entryY=1;entryDx=0;entryDy=0;" parent="1" source="L-7XdOGWxHxovcnAPLZ8-94" target="L-7XdOGWxHxovcnAPLZ8-83" edge="1">
          <mxGeometry width="50" height="50" relative="1" as="geometry">
            <mxPoint x="360" y="440" as="sourcePoint" />
            <mxPoint x="410" y="390" as="targetPoint" />
          </mxGeometry>
        </mxCell>
        <mxCell id="L-7XdOGWxHxovcnAPLZ8-101" value="Chứa" style="rhombus;whiteSpace=wrap;html=1;" parent="1" vertex="1">
          <mxGeometry x="441.25" y="510" width="50" height="40" as="geometry" />
        </mxCell>
        <mxCell id="L-7XdOGWxHxovcnAPLZ8-102" value="M" style="endArrow=none;html=1;rounded=0;exitX=0.5;exitY=0;exitDx=0;exitDy=0;entryX=0.5;entryY=1;entryDx=0;entryDy=0;" parent="1" source="L-7XdOGWxHxovcnAPLZ8-101" target="L-7XdOGWxHxovcnAPLZ8-83" edge="1">
          <mxGeometry x="0.7143" width="50" height="50" relative="1" as="geometry">
            <mxPoint x="360" y="440" as="sourcePoint" />
            <mxPoint x="410" y="390" as="targetPoint" />
            <mxPoint as="offset" />
          </mxGeometry>
        </mxCell>
        <mxCell id="L-7XdOGWxHxovcnAPLZ8-103" value="Áp dụng&lt;br&gt;" style="rhombus;whiteSpace=wrap;html=1;" parent="1" vertex="1">
          <mxGeometry x="677.5" y="510" width="62.5" height="40" as="geometry" />
        </mxCell>
        <mxCell id="L-7XdOGWxHxovcnAPLZ8-104" value="Hệ thống thanh toán&lt;br&gt;" style="rounded=0;whiteSpace=wrap;html=1;" parent="1" vertex="1">
          <mxGeometry x="677.5" y="390" width="120" height="40" as="geometry" />
        </mxCell>
        <mxCell id="L-7XdOGWxHxovcnAPLZ8-106" value="Mã" style="ellipse;whiteSpace=wrap;html=1;" parent="1" vertex="1">
          <mxGeometry x="720" y="350" width="35" height="30" as="geometry" />
        </mxCell>
        <mxCell id="L-7XdOGWxHxovcnAPLZ8-107" value="Phương thức" style="ellipse;whiteSpace=wrap;html=1;" parent="1" vertex="1">
          <mxGeometry x="817.5" y="390" width="80" height="40" as="geometry" />
        </mxCell>
        <mxCell id="L-7XdOGWxHxovcnAPLZ8-108" value="" style="endArrow=none;html=1;rounded=0;entryX=0.5;entryY=1;entryDx=0;entryDy=0;" parent="1" source="L-7XdOGWxHxovcnAPLZ8-104" target="L-7XdOGWxHxovcnAPLZ8-106" edge="1">
          <mxGeometry width="50" height="50" relative="1" as="geometry">
            <mxPoint x="317.5" y="420" as="sourcePoint" />
            <mxPoint x="367.5" y="370" as="targetPoint" />
          </mxGeometry>
        </mxCell>
        <mxCell id="L-7XdOGWxHxovcnAPLZ8-109" value="" style="endArrow=none;html=1;rounded=0;exitX=1;exitY=0.5;exitDx=0;exitDy=0;entryX=0;entryY=0.5;entryDx=0;entryDy=0;" parent="1" source="L-7XdOGWxHxovcnAPLZ8-104" target="L-7XdOGWxHxovcnAPLZ8-107" edge="1">
          <mxGeometry width="50" height="50" relative="1" as="geometry">
            <mxPoint x="317.5" y="420" as="sourcePoint" />
            <mxPoint x="367.5" y="370" as="targetPoint" />
          </mxGeometry>
        </mxCell>
        <mxCell id="L-7XdOGWxHxovcnAPLZ8-110" value="Hệ thống vận chuyển&lt;br&gt;" style="rounded=0;whiteSpace=wrap;html=1;" parent="1" vertex="1">
          <mxGeometry x="797.5" y="515" width="120" height="30" as="geometry" />
        </mxCell>
        <mxCell id="L-7XdOGWxHxovcnAPLZ8-111" value="1" style="endArrow=none;html=1;rounded=0;exitX=0.5;exitY=0;exitDx=0;exitDy=0;entryX=0.25;entryY=1;entryDx=0;entryDy=0;" parent="1" source="L-7XdOGWxHxovcnAPLZ8-103" target="L-7XdOGWxHxovcnAPLZ8-104" edge="1">
          <mxGeometry width="50" height="50" relative="1" as="geometry">
            <mxPoint x="360" y="420" as="sourcePoint" />
            <mxPoint x="410" y="370" as="targetPoint" />
          </mxGeometry>
        </mxCell>
        <mxCell id="L-7XdOGWxHxovcnAPLZ8-112" value="1" style="endArrow=none;html=1;rounded=0;exitX=1;exitY=0.5;exitDx=0;exitDy=0;entryX=0;entryY=0.5;entryDx=0;entryDy=0;" parent="1" source="L-7XdOGWxHxovcnAPLZ8-103" target="L-7XdOGWxHxovcnAPLZ8-110" edge="1">
          <mxGeometry width="50" height="50" relative="1" as="geometry">
            <mxPoint x="360" y="420" as="sourcePoint" />
            <mxPoint x="410" y="370" as="targetPoint" />
          </mxGeometry>
        </mxCell>
        <mxCell id="L-7XdOGWxHxovcnAPLZ8-113" value="Mã" style="ellipse;whiteSpace=wrap;html=1;" parent="1" vertex="1">
          <mxGeometry x="940" y="485" width="40" height="30" as="geometry" />
        </mxCell>
        <mxCell id="L-7XdOGWxHxovcnAPLZ8-114" value="Tên" style="ellipse;whiteSpace=wrap;html=1;" parent="1" vertex="1">
          <mxGeometry x="950" y="530" width="40" height="30" as="geometry" />
        </mxCell>
        <mxCell id="L-7XdOGWxHxovcnAPLZ8-115" value="" style="endArrow=none;html=1;rounded=0;exitX=1;exitY=0.25;exitDx=0;exitDy=0;entryX=0;entryY=1;entryDx=0;entryDy=0;" parent="1" source="L-7XdOGWxHxovcnAPLZ8-110" target="L-7XdOGWxHxovcnAPLZ8-113" edge="1">
          <mxGeometry width="50" height="50" relative="1" as="geometry">
            <mxPoint x="360" y="420" as="sourcePoint" />
            <mxPoint x="410" y="370" as="targetPoint" />
          </mxGeometry>
        </mxCell>
        <mxCell id="L-7XdOGWxHxovcnAPLZ8-116" value="" style="endArrow=none;html=1;rounded=0;exitX=1;exitY=0.5;exitDx=0;exitDy=0;entryX=0;entryY=0.5;entryDx=0;entryDy=0;" parent="1" source="L-7XdOGWxHxovcnAPLZ8-110" target="L-7XdOGWxHxovcnAPLZ8-114" edge="1">
          <mxGeometry width="50" height="50" relative="1" as="geometry">
            <mxPoint x="360" y="420" as="sourcePoint" />
            <mxPoint x="410" y="370" as="targetPoint" />
          </mxGeometry>
        </mxCell>
        <mxCell id="L-7XdOGWxHxovcnAPLZ8-117" value="Đặt hàng&lt;br&gt;" style="rounded=0;whiteSpace=wrap;html=1;" parent="1" vertex="1">
          <mxGeometry x="406.25" y="640" width="120" height="40" as="geometry" />
        </mxCell>
        <mxCell id="L-7XdOGWxHxovcnAPLZ8-120" value="M" style="endArrow=none;html=1;rounded=0;entryX=0.5;entryY=1;entryDx=0;entryDy=0;" parent="1" source="L-7XdOGWxHxovcnAPLZ8-117" target="L-7XdOGWxHxovcnAPLZ8-101" edge="1">
          <mxGeometry x="-0.5556" width="50" height="50" relative="1" as="geometry">
            <mxPoint x="350" y="610" as="sourcePoint" />
            <mxPoint x="400" y="560" as="targetPoint" />
            <mxPoint as="offset" />
          </mxGeometry>
        </mxCell>
        <mxCell id="L-7XdOGWxHxovcnAPLZ8-121" value="" style="endArrow=none;html=1;rounded=0;exitX=1;exitY=0.5;exitDx=0;exitDy=0;entryX=0.5;entryY=1;entryDx=0;entryDy=0;startArrow=none;" parent="1" source="L-7XdOGWxHxovcnAPLZ8-124" target="L-7XdOGWxHxovcnAPLZ8-8" edge="1">
          <mxGeometry width="50" height="50" relative="1" as="geometry">
            <mxPoint x="350" y="610" as="sourcePoint" />
            <mxPoint x="1038.800048828125" y="400" as="targetPoint" />
            <Array as="points">
              <mxPoint x="1060" y="660" />
            </Array>
          </mxGeometry>
        </mxCell>
        <mxCell id="L-7XdOGWxHxovcnAPLZ8-129" value="1&lt;br&gt;" style="edgeLabel;html=1;align=center;verticalAlign=middle;resizable=0;points=[];" parent="L-7XdOGWxHxovcnAPLZ8-121" vertex="1" connectable="0">
          <mxGeometry x="0.9438" relative="1" as="geometry">
            <mxPoint as="offset" />
          </mxGeometry>
        </mxCell>
        <mxCell id="L-7XdOGWxHxovcnAPLZ8-122" value="" style="endArrow=none;html=1;rounded=0;exitX=0.948;exitY=0;exitDx=0;exitDy=0;entryX=0;entryY=0.5;entryDx=0;entryDy=0;exitPerimeter=0;" parent="1" source="L-7XdOGWxHxovcnAPLZ8-117" target="L-7XdOGWxHxovcnAPLZ8-103" edge="1">
          <mxGeometry width="50" height="50" relative="1" as="geometry">
            <mxPoint x="930" y="510" as="sourcePoint" />
            <mxPoint x="980" y="460" as="targetPoint" />
            <Array as="points">
              <mxPoint x="520" y="570" />
              <mxPoint x="520" y="530" />
            </Array>
          </mxGeometry>
        </mxCell>
        <mxCell id="L-7XdOGWxHxovcnAPLZ8-123" value="M" style="edgeLabel;html=1;align=center;verticalAlign=middle;resizable=0;points=[];" parent="L-7XdOGWxHxovcnAPLZ8-122" vertex="1" connectable="0">
          <mxGeometry x="-0.8211" y="-3" relative="1" as="geometry">
            <mxPoint as="offset" />
          </mxGeometry>
        </mxCell>
        <mxCell id="L-7XdOGWxHxovcnAPLZ8-124" value="Chứa" style="rhombus;whiteSpace=wrap;html=1;" parent="1" vertex="1">
          <mxGeometry x="800" y="640" width="50" height="40" as="geometry" />
        </mxCell>
        <mxCell id="L-7XdOGWxHxovcnAPLZ8-125" value="M" style="endArrow=none;html=1;rounded=0;exitX=1;exitY=0.5;exitDx=0;exitDy=0;entryX=0;entryY=0.5;entryDx=0;entryDy=0;" parent="1" source="L-7XdOGWxHxovcnAPLZ8-117" target="L-7XdOGWxHxovcnAPLZ8-124" edge="1">
          <mxGeometry x="-0.7534" width="50" height="50" relative="1" as="geometry">
            <mxPoint x="526.25" y="660" as="sourcePoint" />
            <mxPoint x="1055" y="165" as="targetPoint" />
            <Array as="points">
              <mxPoint x="560" y="660" />
            </Array>
            <mxPoint as="offset" />
          </mxGeometry>
        </mxCell>
        <mxCell id="L-7XdOGWxHxovcnAPLZ8-126" value="Chốt đơn" style="rhombus;whiteSpace=wrap;html=1;" parent="1" vertex="1">
          <mxGeometry x="90" y="630" width="70" height="60" as="geometry" />
        </mxCell>
        <mxCell id="L-7XdOGWxHxovcnAPLZ8-130" value="Thời gian đặt" style="ellipse;whiteSpace=wrap;html=1;" parent="1" vertex="1">
          <mxGeometry x="366.25" y="700" width="75" height="40" as="geometry" />
        </mxCell>
        <mxCell id="L-7XdOGWxHxovcnAPLZ8-132" value="Thời gian giao&lt;br&gt;" style="ellipse;whiteSpace=wrap;html=1;" parent="1" vertex="1">
          <mxGeometry x="491.25" y="700" width="87.5" height="40" as="geometry" />
        </mxCell>
        <mxCell id="L-7XdOGWxHxovcnAPLZ8-134" value="" style="endArrow=none;html=1;rounded=0;exitX=0.25;exitY=1;exitDx=0;exitDy=0;entryX=1;entryY=0;entryDx=0;entryDy=0;" parent="1" source="L-7XdOGWxHxovcnAPLZ8-117" target="L-7XdOGWxHxovcnAPLZ8-130" edge="1">
          <mxGeometry width="50" height="50" relative="1" as="geometry">
            <mxPoint x="500" y="640" as="sourcePoint" />
            <mxPoint x="550" y="590" as="targetPoint" />
          </mxGeometry>
        </mxCell>
        <mxCell id="L-7XdOGWxHxovcnAPLZ8-135" value="" style="endArrow=none;html=1;rounded=0;exitX=0.75;exitY=1;exitDx=0;exitDy=0;entryX=0;entryY=0;entryDx=0;entryDy=0;" parent="1" source="L-7XdOGWxHxovcnAPLZ8-117" target="L-7XdOGWxHxovcnAPLZ8-132" edge="1">
          <mxGeometry width="50" height="50" relative="1" as="geometry">
            <mxPoint x="500" y="640" as="sourcePoint" />
            <mxPoint x="550" y="590" as="targetPoint" />
          </mxGeometry>
        </mxCell>
        <mxCell id="L-7XdOGWxHxovcnAPLZ8-147" value="" style="endArrow=none;html=1;rounded=0;exitX=0.5;exitY=0;exitDx=0;exitDy=0;entryX=0.5;entryY=1;entryDx=0;entryDy=0;" parent="1" source="L-7XdOGWxHxovcnAPLZ8-126" target="L-7XdOGWxHxovcnAPLZ8-3" edge="1">
          <mxGeometry width="50" height="50" relative="1" as="geometry">
            <mxPoint x="430" y="510" as="sourcePoint" />
            <mxPoint x="480" y="460" as="targetPoint" />
          </mxGeometry>
        </mxCell>
        <mxCell id="L-7XdOGWxHxovcnAPLZ8-148" value="" style="endArrow=none;html=1;rounded=0;exitX=1;exitY=0.5;exitDx=0;exitDy=0;entryX=0;entryY=0.5;entryDx=0;entryDy=0;" parent="1" source="L-7XdOGWxHxovcnAPLZ8-126" target="L-7XdOGWxHxovcnAPLZ8-117" edge="1">
          <mxGeometry width="50" height="50" relative="1" as="geometry">
            <mxPoint x="430" y="510" as="sourcePoint" />
            <mxPoint x="480" y="460" as="targetPoint" />
          </mxGeometry>
        </mxCell>
        <mxCell id="MbJ_vTkFXQ6meyeBdJKi-3" value="M" style="edgeLabel;html=1;align=center;verticalAlign=middle;resizable=0;points=[];" vertex="1" connectable="0" parent="L-7XdOGWxHxovcnAPLZ8-148">
          <mxGeometry x="0.7693" y="-1" relative="1" as="geometry">
            <mxPoint x="-1" as="offset" />
          </mxGeometry>
        </mxCell>
        <mxCell id="L-7XdOGWxHxovcnAPLZ8-150" value="" style="endArrow=none;html=1;rounded=0;exitX=0;exitY=0;exitDx=0;exitDy=0;entryX=1;entryY=1;entryDx=0;entryDy=0;" parent="1" source="L-7XdOGWxHxovcnAPLZ8-33" target="L-7XdOGWxHxovcnAPLZ8-3" edge="1">
          <mxGeometry width="50" height="50" relative="1" as="geometry">
            <mxPoint x="430" y="220" as="sourcePoint" />
            <mxPoint x="480" y="170" as="targetPoint" />
          </mxGeometry>
        </mxCell>
      </root>
    </mxGraphModel>
  </diagram>
</mxfile>
